<?xml version="1.0" encoding="utf-8"?>
<!-- Generator: Adobe Illustrator 18.1.1, SVG Export Plug-In . SVG Version: 6.00 Build 0)  -->
<svg version="1.1" id="Layer_1" xmlns="http://www.w3.org/2000/svg" xmlns:xlink="http://www.w3.org/1999/xlink" x="0px" y="0px"
	 viewBox="0 0 60 200" enable-background="new 0 0 60 200" xml:space="preserve">
<path stroke="#000000" stroke-width="2.8477" stroke-miterlimit="10" d="M47.2,64.7c-3.9-2.1-6.3-6.3-6.3-10.7l0-35.8v0
	c0-1-0.8-1.8-1.8-1.8h-18c-1,0-1.8,0.8-1.8,1.8v0l0,0l0,35.9c0,4.5-2.4,8.6-6.3,10.7C6.2,68.5,1.6,75.7,1.6,83.9v112.4
	c0,1,0.8,1.8,1.8,1.8h53.4c1,0,1.8-0.8,1.8-1.8V83.9C58.6,75.6,54.1,68.4,47.2,64.7z M33.2,28.1H27c-2.2,0-4.1-1.8-4.1-4.1v0
	c0-2.2,1.8-4.1,4.1-4.1h6.3c2.2,0,4.1,1.8,4.1,4.1v0C37.3,26.3,35.5,28.1,33.2,28.1z M21.3,65.9L21.3,65.9c0.9-0.1,1.6-0.9,1.6-1.8
	l0-27c0-3.2,2.6-5.8,5.8-5.8h2.7c3.2,0,5.8,2.6,5.8,5.8v26.9c0,0.9,0.7,1.7,1.6,1.8l0,0c9.2,0.9,16.1,8.7,16.1,18.1v17
	c0,1-0.8,1.8-1.8,1.8H10.4c-2.9,0-5.2-2.3-5.2-5.2V83.9C5.2,74.7,12.1,66.9,21.3,65.9z M44.8,150.1H15.4c-5.6,0-10.2-4.6-10.2-10.2
	v-23.8c0-5.6,4.6-10.2,10.2-10.2h29.5c5.6,0,10.2,4.6,10.2,10.2v23.8C55.1,145.5,50.5,150.1,44.8,150.1z M55.1,188.3
	c0,1.4-1.5,2.2-2.7,1.5c-5.3-3.1-14.2-4.7-22.8-4.7c-8,0-16.4,1.4-21.8,4.1c-1.2,0.6-2.6-0.3-2.6-1.6l0-29.2c0-2.9,2.3-5.2,5.2-5.2
	h39.4c2.9,0,5.2,2.3,5.2,5.2L55.1,188.3z M47,194.6H12c-2,0-2.5-2.8-0.6-3.5c4.4-1.7,10.8-2.8,18.1-2.8s13.7,1.2,18.1,2.8
	C49.5,191.8,49,194.6,47,194.6z"/>
</svg>
