<?xml version="1.0" encoding="utf-8"?>
<!-- Generator: Adobe Illustrator 18.1.1, SVG Export Plug-In . SVG Version: 6.00 Build 0)  -->
<svg version="1.1" id="Layer_1" xmlns="http://www.w3.org/2000/svg" xmlns:xlink="http://www.w3.org/1999/xlink" x="0px" y="0px"
	 viewBox="0 0 60 43" enable-background="new 0 0 60 43" xml:space="preserve">
<path d="M32.2,2c-0.1,0-0.2,0-0.3,0c-0.6-0.1-1.3-0.1-1.9-0.1s-1.3,0-1.9,0.1c-0.1,0-0.2,0-0.3,0C16.1,3.3,5.9,14.9,2.1,19.8
	c-1,1.3-1,3.1,0,4.3c3.8,4.9,14,16.5,25.7,17.7c0.1,0,0.2,0,0.3,0C28.7,42,29.4,42,30,42s1.3,0,1.9-0.1c0.1,0,0.2,0,0.3,0
	C43.9,40.6,54.1,29,57.9,24.1c1-1.3,1-3.1,0-4.3C54.1,14.9,43.9,3.3,32.2,2z M47,22c0,8.8-6.7,16-15.2,16.9c-0.1,0-0.2,0-0.3,0
	C31.1,39,30.5,39,30,39s-1.1,0-1.6-0.1c-0.1,0-0.2,0-0.3,0C19.6,38,13,30.7,13,22C13,13.2,19.6,6,28.1,5c0.1,0,0.2,0,0.3,0
	c0.5,0,1.1-0.1,1.6-0.1s1.1,0,1.6,0.1c0.1,0,0.2,0,0.3,0C40.4,5.9,47,13.2,47,22z M5.5,20.2c0.9-1.1,2-2.4,3.3-3.8
	c0.7-0.7,1.9-0.1,1.7,0.9c-0.4,1.5-0.5,3-0.5,4.6c0,1.6,0.2,3.1,0.5,4.6c0.2,1-1,1.7-1.7,0.9c-1.4-1.4-2.5-2.8-3.3-3.8
	C4.7,22.7,4.7,21.2,5.5,20.2z M51.2,27.5c-0.7,0.7-1.9,0.1-1.7-0.9c0.4-1.5,0.5-3,0.5-4.6c0-1.6-0.2-3.1-0.5-4.6
	c-0.2-1,1-1.7,1.7-0.9c1.4,1.4,2.5,2.8,3.4,3.8c0.8,1,0.8,2.4,0,3.4C53.7,24.7,52.5,26.1,51.2,27.5z"/>
<circle cx="30" cy="22" r="9.4"/>
</svg>
