<?xml version="1.0" encoding="utf-8"?>
<!-- Generator: Adobe Illustrator 18.1.1, SVG Export Plug-In . SVG Version: 6.00 Build 0)  -->
<svg version="1.1" id="Layer_1" xmlns="http://www.w3.org/2000/svg" xmlns:xlink="http://www.w3.org/1999/xlink" x="0px" y="0px"
	 viewBox="0 0 60 200" enable-background="new 0 0 60 200" xml:space="preserve">
<path stroke="#000000" stroke-width="1.9046" stroke-miterlimit="10" d="M30,21c-16,0-29.1,18.8-29.1,42c0,15.9,6.1,29.7,15.2,36.8
	c7.1,5.6,11.5,14,11.5,23c0,23.8,0,63.7,0,73.8c0,1.3,1.1,2.4,2.4,2.4c1.3,0,2.4-1.1,2.4-2.4v-73.8c0-9.1,4.4-17.4,11.5-23
	c9-7.1,15.2-21,15.2-36.8C59.1,39.8,46,21,30,21z M30,25.7c13.4,0,24.3,16.7,24.3,37.2c0,0.6,0,1.2,0,1.8
	C54,74.8,47.4,83.6,37.8,86.4c-2.4,0.7-5,1.1-7.8,1.1c-2.2,0-4.3-0.2-6.2-0.7C13.4,84.7,6.1,75.5,5.7,64.8c0-0.6,0-1.2,0-1.9
	C5.7,42.4,16.6,25.7,30,25.7z M30,100.1c-5.4,0-10.4-2.7-14.4-7.3c-1.1-1.2,0.2-3.1,1.8-2.5c4,1.5,8.3,2.3,12.6,2.3
	c4.3,0,8.6-0.8,12.6-2.3c1.5-0.6,2.9,1.2,1.8,2.5C40.4,97.4,35.4,100.1,30,100.1z"/>
</svg>
